<svg width="2000" height="2000" viewBox="0 0 2000 2000" fill="none" xmlns="http://www.w3.org/2000/svg">
<circle cx="1000" cy="1000" r="1000" fill="#43B9DD"/>
<path d="M1056.22 448.269C882.598 448.269 735.94 573.06 690.309 743.476C671.314 731.369 649.46 724.404 626.095 724.404C553.837 724.404 495.207 790.485 495.207 871.926C495.207 872.755 495.195 873.545 495.207 874.371C473.562 869.373 450.867 866.547 427.377 866.547C284.151 866.547 167.915 965.75 167.915 1087.91C167.915 1210.07 284.151 1309.28 427.377 1309.28C484.104 1309.28 536.52 1293.6 579.235 1267.22C604.747 1353.25 676.738 1415.39 761.611 1415.39C819.122 1415.39 870.692 1386.85 905.949 1341.71C940.153 1361.88 980.376 1373.5 1023.39 1373.5C1081.91 1373.5 1135.31 1352.05 1175.39 1316.77C1229.4 1379.95 1308.81 1419.96 1397.39 1419.96C1506.06 1419.96 1601.04 1359.69 1652.08 1270.32C1659.77 1271.59 1667.65 1272.27 1675.66 1272.27C1762.11 1272.27 1832.14 1195.64 1832.14 1101.11C1832.14 1006.59 1762.11 929.794 1675.66 929.794C1660.19 929.794 1645.23 932.39 1631.11 936.966C1584.53 875.075 1514.88 832.167 1435.29 821.72C1419 612.642 1255.49 448.269 1056.22 448.269V448.269Z" fill="white" stroke="#43B9DD" stroke-width="99"/>
<path d="M1047.94 438.977C889.242 439.512 734.089 558.99 684.777 729.619C613 688.595 516.587 736.053 493.291 822.371C489.474 835.46 486.969 849.182 486.349 862.96C373.735 840.607 240.55 882.144 180.172 997.93C139.789 1073.47 159.416 1175.94 216.908 1232.99C310.141 1332.92 462.792 1343.48 574.571 1284.17C610.837 1393.33 728.498 1455.09 826.368 1414.9C857.537 1403.54 885.936 1381.02 908.516 1355.89C992.457 1401.53 1098.72 1393.42 1174.49 1331.61C1296.01 1469.17 1517.67 1463.57 1631.94 1317.75C1645.59 1307.25 1649.49 1276.52 1669.4 1283.52C1761.71 1290.74 1848.62 1197.61 1841.22 1092.47C1838.2 984.184 1738.88 901.216 1645.68 923.435C1626.46 932.413 1619.1 900.382 1603.31 892.301C1558.61 848.047 1499.29 823.934 1443.64 811.775C1426.68 622.943 1281.76 468.458 1116.97 443.933C1094.2 440.045 1071.03 438.375 1047.94 438.977V438.977Z" fill="white" stroke="#43B9DD" stroke-width="99"/>
</svg>
