<svg width="512" height="512" viewBox="0 0 512 512" fill="none" xmlns="http://www.w3.org/2000/svg">
<path d="M505.12 19.0938C503.931 13.5625 498.462 8.09375 492.913 6.90625C460.716 0 435.507 0 410.407 0C307.175 0 245.269 55.2031 199.052 128H94.8377C78.4901 128.016 59.2811 139.875 51.9511 154.484L2.51562 253.297C0.987891 256.667 0.13334 260.302 0 264C0.00229866 270.365 2.5324 276.47 7.03403 280.97C11.5357 285.471 17.6403 287.999 24.0058 288H127.816L105.342 310.469C93.9764 321.83 92.3455 342.727 105.342 355.719L156.246 406.625C167.402 417.812 188.402 419.781 201.523 406.625L223.998 384.156V488C224 494.365 226.53 500.47 231.032 504.97C235.533 509.471 241.638 511.999 248.003 512C251.702 511.863 255.338 511.009 258.71 509.484L357.439 460.094C372.068 452.797 383.947 433.594 383.947 417.234V312.797C456.544 266.484 511.981 204.391 511.981 101.703C512.075 76.5 512.075 51.2969 505.12 19.0938ZM384.04 168C376.13 167.998 368.397 165.651 361.82 161.254C355.243 156.858 350.118 150.61 347.092 143.301C344.066 135.991 343.275 127.949 344.82 120.19C346.364 112.432 350.175 105.305 355.769 99.7123C361.364 94.1192 368.491 90.3105 376.25 88.7679C384.009 87.2253 392.051 88.018 399.36 91.0457C406.668 94.0735 412.915 99.2004 417.309 105.778C421.704 112.356 424.05 120.089 424.05 128C424.044 138.608 419.826 148.78 412.324 156.281C404.822 163.781 394.649 167.996 384.04 168V168Z" fill="#43B9DD"/>
</svg>
